<?xml version="1.0" standalone="no"?><!DOCTYPE svg PUBLIC "-//W3C//DTD SVG 1.1//EN" "http://www.w3.org/Graphics/SVG/1.1/DTD/svg11.dtd"><svg t="1769545395972" class="icon" viewBox="0 0 1024 1024" version="1.1" xmlns="http://www.w3.org/2000/svg" p-id="7619" xmlns:xlink="http://www.w3.org/1999/xlink" width="200" height="200"><path d="M572.096 717.12m32 0l291.008 0q32 0 32 32l0 0q0 32-32 32l-291.008 0q-32 0-32-32l0 0q0-32 32-32Z" fill="#1D2531" p-id="7620"></path><path d="M781.632 571.584m0 32l0 291.008q0 32-32 32l0 0q-32 0-32-32l0-291.008q0-32 32-32l0 0q32 0 32 32Z" fill="#1D2531" p-id="7621"></path><path d="M500.096 129.408a371.2 371.2 0 0 0-318.848 561.408l6.4 10.688-2.56 12.16c-11.712 56.704-21.12 100.992-27.648 131.328 36.48-7.232 88.32-17.408 135.232-26.432l11.712-2.24 10.368 5.952a369.408 369.408 0 0 0 199.296 49.28 32 32 0 0 1 2.368 64 433.408 433.408 0 0 1-223.104-51.84c-47.808 9.088-98.944 19.2-132.736 25.92a57.792 57.792 0 0 1-67.712-68.8c6.08-28.224 15.36-71.488 27.072-128.192a435.2 435.2 0 1 1 815.36-212.032 32 32 0 0 1-64 0 371.2 371.2 0 0 0-371.2-371.2z" fill="#1D2531" p-id="7622"></path></svg>